<?xml version="1.0" encoding="utf-8" ?>
<svg xmlns="http://www.w3.org/2000/svg" xmlns:xlink="http://www.w3.org/1999/xlink" width="512" height="512">
	<defs>
		<linearGradient id="gradient_0" gradientUnits="userSpaceOnUse" x1="134.8869" y1="36.285927" x2="377.02444" y2="473.91162">
			<stop offset="0" stop-color="#2703FE"/>
			<stop offset="1" stop-color="#FF00FC"/>
		</linearGradient>
	</defs>
	<path fill="url(#gradient_0)" d="M12.0799 197.045C13.2334 190.717 15.4576 184.211 17.5223 178.125C29.0252 144.215 44.8497 116.173 68.3794 89.5874C75.1235 81.9673 81.9465 74.511 89.5675 67.7476C133.217 29.0098 197.493 4.2355 256.25 4.34086C294.398 4.40927 332.741 13.7304 366.625 31.2509C373.222 34.6618 380.237 38.0616 386.308 42.3303C401.184 50.7534 415.167 62.1793 427.454 73.93L430.732 77.1203C431.006 77.3983 431.724 77.9949 431.855 78.327C442.528 87.7276 457.588 106.208 465.568 118.332C477.218 136.035 488.644 159.251 494.764 179.217L500.775 200.816C503.633 212.808 506.026 224.9 506.76 237.237L506.792 266.875C501.253 371.291 425.72 468.815 323.997 496.175L291.816 503.334C284.089 504.658 276.141 505.712 268.305 505.75L254.5 505.767C248.904 505.762 243.211 505.921 237.63 505.519C182.003 501.515 121.664 474.649 82.019 434.616C79.6779 432.252 77.1251 429.864 75.0172 427.292C41.0704 392.514 15.5445 342.603 8.07375 294.75C3.21074 263.601 3.74993 227.792 12.0799 197.045ZM26.3547 198.713C18.0328 240.5 15.929 270.471 26.6182 313.071C32.5027 336.522 44.9865 363.94 58.6209 384.391C59.2806 385.381 64.0886 392.088 64.088 392.537L72.2273 403.086C80.504 413.231 89.349 422.549 99.005 431.379L109.375 440.394C110.168 441.022 113.477 443.092 113.762 443.84C116.498 445.279 119.041 447.451 121.697 449.101L145 463.003C168.925 476.255 194.861 484.054 221.789 488.249C269.191 495.632 316.236 487.93 359.26 467.148C401.247 446.867 436.709 413.741 459.837 373.325L469.625 354.966C499.504 291.861 499.647 220.675 470.798 156.98C458.97 130.866 442.556 110.007 423.215 89.1601C414.98 81.0941 406.419 73.3478 397.013 66.6459L377.762 53.8443L377.373 53.6495C374.844 52.3641 372.47 50.7074 369.971 49.3446C338.846 32.3705 304.366 21.7405 268.875 19.6956C214.228 16.547 155.928 34.7485 112.824 68.0796C76.5705 96.1135 46.9017 135.868 32.1555 179.271L28.9762 189.25C28.6296 190.458 26.7926 198.303 26.3547 198.713Z"/>
	<path fill="#4301FE" d="M265.245 342.275L265.381 329.212C265.421 323.448 264.042 314.846 270.919 313.497L271.375 313.413C273.426 313.021 275.5 312.977 277.581 312.891C278.305 313.507 278.462 313.877 278.536 314.828L278.792 323.147C278.804 324.166 278.617 325.989 279.308 326.722C279.838 329.477 278.239 337.347 278.27 341.104C274.036 342.13 269.583 342.65 265.245 342.275Z"/>
	<path fill="#D300FA" d="M289.676 305.424L289.904 305.212C292.796 304.842 297.721 303.44 300.565 304.369C301.316 307.484 303.76 321.227 302.033 323.85C299.826 327.201 283.41 325.974 279.366 326.607C278.617 325.989 278.804 324.166 278.792 323.147L278.536 314.828C278.462 313.877 278.305 313.507 277.581 312.895C277.978 312.625 279.851 312.798 280.373 312.797L290.261 312.762C290.418 312.06 290.235 311.173 290.174 310.444L289.676 305.424Z"/>
	<path fill="#D300FA" d="M278.241 341.104C282.893 341.249 300.49 340.518 303.514 342.641C309.748 347.016 306.616 354.406 300.93 355.642C294.99 356.933 281.759 356.521 275.875 355.291C269.649 353.99 271.524 351.46 269.311 346.393C264.61 349.843 265.197 346.355 265.245 342.282C269.583 342.65 274.036 342.13 278.241 341.104Z"/>
	<path fill="#4301FE" d="M267.027 291.827L267.509 291.952C267.615 286.49 266.369 280.742 267.272 275.409C267.428 276.238 267.408 276.52 267.991 277.154L270.25 277.361C272.169 276.874 276.582 278.774 277.743 280.517L278.483 280.712C278.903 280.104 279.233 279.379 279.437 278.668L279.622 278.017C280.469 276.071 281.05 273.024 281.281 270.874C281.521 274.703 282.244 289.815 280.519 293.012L280.375 293.25C280.16 293.661 280.023 293.989 279.727 294.359L279.696 294.986C281.603 292.371 281.403 290.436 281.416 287.304L281.469 278.563L281.493 291.691L288.505 291.705C291.782 291.562 305.007 290.187 307.06 292.22L307.559 292.714C310.004 295.107 312.005 299.187 311.995 302.613L311.991 302.875C309.893 304.715 304.052 304.615 301.291 304.436L300.565 304.375C297.721 303.44 292.796 304.842 289.904 305.212L289.676 305.424L288.954 305.462C283.55 305.655 273.482 305.89 269.463 301.961C266.753 299.312 267.143 295.311 267.027 291.827Z"/>
	<path fill="#4301FE" d="M354.638 116.011L412.985 116.01C417.942 116.014 422.615 115.773 425.4 120.889L425.915 121.902C427.338 125.141 424.464 128.715 421.573 129.907L421.25 130.036C419.047 130.976 417.027 130.872 414.689 130.894L407.375 130.935L347.676 130.977C341.719 130.987 333.559 129.847 335.726 121.461C337.049 116.342 342.16 116.079 346.489 116.048L354.638 116.011Z"/>
	<path fill="#4301FE" d="M360.324 154.779L413.736 154.773C418.07 154.775 422.78 154.346 425.143 158.907L425.566 159.8C427.022 163.941 424.485 167.645 420.599 168.934L420.25 169.046C417.235 170.034 414.037 169.861 410.903 169.873L399.938 169.899C395.089 169.542 389.945 169.877 385.069 169.877L345.856 169.918C343.918 169.92 341.803 170.052 339.907 169.614C334.042 168.258 334.338 158.43 339.372 156.042C342.705 154.462 346.543 154.827 350.133 154.811L360.324 154.779Z"/>
	<path fill="#4301FE" d="M91.9286 116.108L168.354 116.049C177.45 116.448 179.668 128.326 170.688 130.382C167.137 131.253 163.063 130.921 159.442 130.927L109.133 130.963C103.876 130.964 98.4953 131.21 93.2581 130.9C85.0576 130.416 84.0464 117.891 91.9286 116.108Z"/>
	<path fill="#4301FE" d="M92.4477 154.819L160.588 154.77C163.547 154.77 166.641 154.596 169.588 154.821C177.526 155.428 178.961 168.132 168.628 170.183C164.963 170.257 161.188 169.928 157.504 169.916L103.695 169.926C100.286 169.932 96.7703 170.211 93.375 169.989C84.0908 169.384 81.9392 156.983 92.4477 154.819Z"/>
	<defs>
		<linearGradient id="gradient_1" gradientUnits="userSpaceOnUse" x1="337.5607" y1="264.31226" x2="413.82901" y2="305.1113">
			<stop offset="0" stop-color="#6D00FD"/>
			<stop offset="1" stop-color="#B500FD"/>
		</linearGradient>
	</defs>
	<path fill="url(#gradient_1)" d="M344.71 277.491L410.283 277.494C412.975 277.497 415.818 277.316 418.492 277.604C424.984 278.304 426.656 285.604 422.346 289.83C419.919 292.209 417.028 291.772 413.903 291.774L406.617 291.765L350.831 291.784C346.618 291.79 334.045 293.537 330.781 291.412L330.5 291.224C325.845 288.152 325.929 280.544 331.01 277.871C332.048 277.325 333.953 277.494 335.105 277.489L344.71 277.491Z"/>
	<defs>
		<linearGradient id="gradient_2" gradientUnits="userSpaceOnUse" x1="329.73068" y1="318.58282" x2="422.32828" y2="341.17554">
			<stop offset="0" stop-color="#B300F3"/>
			<stop offset="1" stop-color="#DC00FA"/>
		</linearGradient>
	</defs>
	<path fill="url(#gradient_2)" d="M348.582 322.846L411.812 322.808C413.916 322.795 416.261 322.523 418.341 322.769C427.7 323.876 426.258 336.195 418.197 337.175C414.665 337.605 410.843 337.326 407.282 337.325L334.301 337.263C324.193 336.836 325.539 322.925 334.487 322.96L348.582 322.846Z"/>
	<path fill="#9500FF" d="M329.785 232.304L408.965 232.152C412.206 232.151 415.632 231.946 418.857 232.234C427.374 232.994 427.878 243.355 419.863 246.154C418.688 246.459 417.484 246.629 416.27 246.662L339.791 246.708C336.817 246.711 333.13 247.1 330.224 246.44L329.911 246.363C322.512 244.597 322.666 235.639 329.785 232.304Z"/>
	<path fill="#D300FA" d="M334.953 368.354L408.767 368.456C411.887 368.44 415.913 367.91 418.869 368.836L419.899 369.172C423.385 370.451 425.872 373.958 424.424 377.69L424.294 378C422.936 381.312 420.102 382.875 416.679 383.306C411.576 383.589 406.3 383.319 401.18 383.314L346.855 383.272C342.634 383.271 338.201 383.53 334 383.106C324.316 382.126 323.264 369.319 334.953 368.354Z"/>
	<path fill="#4301FE" d="M91.9465 232.112C94.3336 231.883 96.8477 232.1 99.25 232.107L178.445 232.095C180.367 232.088 182.889 231.803 184.723 232.331L185.125 232.484C192.25 235.093 190.621 244.207 183.142 246.538C178.971 247.042 174.44 246.713 170.231 246.712L107.256 246.71C102.6 246.716 97.7599 247.109 93.1329 246.921C84.49 246.571 82.8916 234.856 91.9465 232.112Z"/>
	<path fill="#9500FF" d="M328.545 193.606L405.509 193.527C409.62 193.533 413.936 193.278 418.021 193.656C428.922 194.665 427.635 206.991 417.211 207.979C409.347 207.897 401.243 208.286 393.355 208.29L332.85 208.336C330.374 208.359 327.809 208.57 325.347 208.411C318.581 207.973 315.988 194.54 328.545 193.606Z"/>
	<path fill="#4301FE" d="M154.691 193.498L172.571 193.487C176.161 193.489 186.06 192.412 188.869 194.324L189.125 194.503C194.33 198.108 193.194 204.632 187.932 207.441L187.607 207.609C185.061 208.941 181.441 208.295 178.662 208.298L123.625 208.301L96.3317 208.364C82.5182 208.405 83.7337 195.089 92.0925 193.626C93.9666 193.298 96.1194 193.504 98.0342 193.501L154.691 193.498Z"/>
	<path fill="#4301FE" d="M94.6542 322.81L182.481 322.846C186.384 322.816 192.711 321.584 196.17 323.777L196.5 323.995C200.596 326.666 201.416 334.743 196.159 336.471L195.875 336.556C194.786 336.885 193.69 336.925 192.562 336.99L94.6968 337.755C84.9423 337.63 83.6805 324.908 94.6542 322.81Z"/>
	<path fill="#4301FE" d="M93.4105 368.618C97.5648 368.298 101.894 368.531 106.068 368.527L191.219 368.547C192.295 368.575 193.305 368.672 194.312 369.09L194.625 369.227C201.356 372.092 200.578 381.534 193.672 383.236L93.1776 383.256C84.6034 382.482 86.2334 370.277 93.4105 368.618Z"/>
	<path fill="#4301FE" d="M93.8683 276.805L180.089 277.135C184.188 277.13 188.397 276.883 192.485 277.109C201.01 277.581 203.483 290.009 192.757 291.711L103.344 291.779C100.122 291.795 96.8316 292.037 93.6204 291.887C84.8317 291.475 84.0528 278.734 93.8683 276.805Z"/>
	<path fill="#4301FE" d="M254.102 94.5954C259.494 93.8258 265.729 95.4012 270.125 98.5434C289.684 112.524 281.585 141.271 258.311 144.484C223.974 145.193 221.924 98.1169 254.102 94.5954ZM254.28 108.561C250.303 109.323 247.556 112.068 246.2 115.75L246.079 116.066C243.254 123.841 251.221 130.665 258.588 129.274C271.634 124.264 267.462 107.53 254.28 108.561Z"/>
	<defs>
		<linearGradient id="gradient_3" gradientUnits="userSpaceOnUse" x1="179.56966" y1="86.893219" x2="347.87134" y2="397.69693">
			<stop offset="0" stop-color="#0001FE"/>
			<stop offset="1" stop-color="#C301FF"/>
		</linearGradient>
	</defs>
	<path fill="url(#gradient_3)" d="M228.492 324.055L229.153 201.596C228.185 200.89 227.209 200.83 226.136 200.377C209.352 193.293 194.206 177.037 187.753 160.321C173.271 122.809 190.399 75.9161 228.866 61.1071C247.421 53.9637 268.316 54.6984 286.418 62.7757C345.354 89.0734 343.072 178.497 281.492 201.822L281.484 278.563L281.416 287.304C281.403 290.436 281.603 292.371 279.696 294.986L279.727 294.359C280.023 293.989 280.16 293.661 280.375 293.25L280.519 293.012C282.244 289.815 281.521 274.703 281.281 270.874C281.05 273.024 280.469 276.071 279.622 278.017L279.437 278.668C279.233 279.379 278.903 280.104 278.483 280.712L277.743 280.517C276.582 278.774 272.169 276.874 270.25 277.361L267.991 277.154C267.408 276.52 267.428 276.238 267.272 275.409C266.369 280.742 267.615 286.49 267.509 291.952L267.027 291.827L267.016 205.964C267.02 202.259 266.549 197.732 267.538 194.175L267.633 193.79C268.483 191.761 279.626 187.285 282.199 185.87C343.665 152.082 311.022 55.6309 241.79 72.613C218.179 78.4047 199.827 100.078 197.671 124.25C195.146 152.55 207.899 176.375 233.922 187.988C236.817 189.28 243.036 190.691 243.198 194.625L243.095 276.64C243.09 281.074 243.389 285.756 243.001 290.153L242.592 314.57L242.576 415.472C242.569 419.118 241.998 423.843 242.991 427.318L264.956 427.078C265.336 425.567 265.282 424.003 265.311 422.455L265.704 380.944C265.811 375.256 265.353 368.79 266.62 363.25C267.876 357.752 273.746 354.892 276.777 361.161C279.982 367.789 278.05 375.744 278.982 382.767C285.82 377.731 303.614 375.568 307.006 385.625L307.093 385.878C308.114 389.122 305.81 393.68 305.731 397.097C305.589 403.277 310.579 411.378 306.425 418.601C304.502 421.946 298.964 420.772 295.761 420.775L279.282 420.796C278.555 429.363 275.473 440.365 265.411 441.626C262.338 442.011 258.974 441.763 255.875 441.751L246.732 441.642C228.723 441.097 228.455 427.753 228.439 413.095L228.492 324.055ZM286.639 391.603L279.253 392.597C279.183 397.052 278.683 401.756 279.608 406.134C281.588 406.395 283.564 406.637 285.562 406.426C287.505 406.182 290.291 405.997 291.625 404.367C293.457 402.129 293.54 394.94 291.737 392.375C290.129 391.52 288.415 391.464 286.639 391.603Z"/>
</svg>
